# xmcd
#
# Track frame offsets:
#	183
#	12610
#	21058
#	30835
#	43280
#	50888
#	58873
#	67323
#	79333
#	90748
#	100460
#	110748
#	120808
#	130565
#	142328
#	154683
#	164868
#	176033
#
# Disc length: 2483 seconds
#
# Revision: 0
# Processed by: cddbd v1.4PL0 Copyright (c) Steve Scherf et al.
# Submitted via: MusicWizard 6.0.0
#
DISCID=0b09b112
DTITLE=Johnny Cash - The Golden Years
DYEAR=1995
DGENRE=Country
TTITLE0=I Walk The Line
TTITLE1=Guess Things Happen That Way
TTITLE2=Ballad Of A Teenage Queen
TTITLE3=Folsom Prison Blues
TTITLE4=Hey Good Lookin'
TTITLE5=I Can't Help It
TTITLE6=I Forgot To Remember To Forget
TTITLE7=You're The Nearest Thing To Heaven
TTITLE8=Big River
TTITLE9=Born To Loose
TTITLE10=You Win Again
TTITLE11=Get Rhythm
TTITLE12=Rock Island Line
TTITLE13=Thanks A Lot
TTITLE14=Next In Line
TTITLE15=There You Go
TTITLE16=Oh! Lonesome Me!
TTITLE17=The Ways Of A Woman In Love
EXTD=(c)1995 Musiquarium, Quality Special Products, London UK\nupc 5023660005425
EXTT0=
EXTT1=
EXTT2=
EXTT3=
EXTT4=
EXTT5=
EXTT6=
EXTT7=
EXTT8=
EXTT9=
EXTT10=
EXTT11=
EXTT12=
EXTT13=
EXTT14=
EXTT15=
EXTT16=
EXTT17=
PLAYORDER=
